<svg width="200" height="61" viewBox="0 0 200 61" fill="none" xmlns="http://www.w3.org/2000/svg">
<g filter="url(#filter0_d_608_18014)">
<path d="M0 27.5C0 13.4167 11.4167 2 25.5 2H164.5C178.583 2 190 13.4167 190 27.5V27.5C190 41.5833 178.583 53 164.5 53H95H25.5C11.4167 53 0 41.5833 0 27.5V27.5Z" fill="url(#paint0_linear_608_18014)"/>
</g>
<path d="M45.5469 30.9297C45.776 30.9297 46.0833 30.9193 46.4688 30.8984C46.8594 30.8724 47.2656 30.7995 47.6875 30.6797C48.1094 30.5547 48.4948 30.3516 48.8438 30.0703C49.1927 29.7891 49.4479 29.3958 49.6094 28.8906H52.8828C52.6901 30.3229 51.987 31.4089 50.7734 32.1484C49.5599 32.8828 47.8177 33.25 45.5469 33.25C43.0625 33.25 41.2083 32.8073 39.9844 31.9219C38.7656 31.0365 38.1562 29.7396 38.1562 28.0312V27.4531C38.1562 25.7448 38.7656 24.4479 39.9844 23.5625C41.2083 22.6771 43.0625 22.2344 45.5469 22.2344C47.8177 22.2344 49.5599 22.6042 50.7734 23.3438C51.987 24.0781 52.6901 25.1589 52.8828 26.5859H49.6094C49.4479 26.0859 49.1927 25.6953 48.8438 25.4141C48.4948 25.1328 48.1094 24.9323 47.6875 24.8125C47.2656 24.6875 46.8594 24.6146 46.4688 24.5938C46.0833 24.5677 45.776 24.5547 45.5469 24.5547C45.3385 24.5547 45.0599 24.5651 44.7109 24.5859C44.3672 24.6016 44.0026 24.6562 43.6172 24.75C43.2318 24.8438 42.8672 24.9974 42.5234 25.2109C42.1797 25.4245 41.8958 25.724 41.6719 26.1094C41.4531 26.4896 41.3438 26.9844 41.3438 27.5938V27.8828C41.3438 28.4922 41.4531 28.9896 41.6719 29.375C41.8958 29.7552 42.1797 30.0547 42.5234 30.2734C42.8672 30.487 43.2318 30.6406 43.6172 30.7344C44.0026 30.8281 44.3672 30.8854 44.7109 30.9062C45.0599 30.9219 45.3385 30.9297 45.5469 30.9297ZM68.5625 28.0391C68.5625 29.7422 67.9505 31.0365 66.7266 31.9219C65.5078 32.8073 63.6562 33.25 61.1719 33.25C58.6823 33.25 56.8281 32.8073 55.6094 31.9219C54.3906 31.0365 53.7812 29.7422 53.7812 28.0391V27.4609C53.7812 25.7526 54.3906 24.4557 55.6094 23.5703C56.8281 22.6849 58.6823 22.2422 61.1719 22.2422C63.6562 22.2422 65.5078 22.6849 66.7266 23.5703C67.9505 24.4557 68.5625 25.7526 68.5625 27.4609V28.0391ZM56.9688 27.8906C56.9688 28.5 57.0781 28.9974 57.2969 29.3828C57.5208 29.763 57.8047 30.0625 58.1484 30.2812C58.4922 30.4948 58.8568 30.6484 59.2422 30.7422C59.6276 30.8359 59.9922 30.8932 60.3359 30.9141C60.6849 30.9297 60.9635 30.9375 61.1719 30.9375C61.3802 30.9375 61.6562 30.9297 62 30.9141C62.3438 30.8932 62.7083 30.8359 63.0938 30.7422C63.4844 30.6484 63.8516 30.4948 64.1953 30.2812C64.5391 30.0625 64.8203 29.763 65.0391 29.3828C65.263 28.9974 65.375 28.5 65.375 27.8906V27.6016C65.375 26.9922 65.263 26.4974 65.0391 26.1172C64.8203 25.7318 64.5391 25.4323 64.1953 25.2188C63.8516 25.0052 63.4844 24.8516 63.0938 24.7578C62.7083 24.6641 62.3438 24.6094 62 24.5938C61.6562 24.5729 61.3802 24.5625 61.1719 24.5625C60.9635 24.5625 60.6849 24.5729 60.3359 24.5938C59.9922 24.6094 59.6276 24.6641 59.2422 24.7578C58.8568 24.8516 58.4922 25.0052 58.1484 25.2188C57.8047 25.4323 57.5208 25.7318 57.2969 26.1172C57.0781 26.4974 56.9688 26.9922 56.9688 27.6016V27.8906ZM84.6016 22.5H89.3516V33H86.1406V25.2422L80.375 33H78.7812L73.0156 25.2422V33H69.8125V22.5H74.5547L79.5781 28.9375L84.6016 22.5ZM104.828 24.8281H94.9062V27.2031H103.656V29.3672H94.9062V33H91.7031V22.5H104.828V24.8281ZM119.766 28.0391C119.766 29.7422 119.154 31.0365 117.93 31.9219C116.711 32.8073 114.859 33.25 112.375 33.25C109.885 33.25 108.031 32.8073 106.812 31.9219C105.594 31.0365 104.984 29.7422 104.984 28.0391V27.4609C104.984 25.7526 105.594 24.4557 106.812 23.5703C108.031 22.6849 109.885 22.2422 112.375 22.2422C114.859 22.2422 116.711 22.6849 117.93 23.5703C119.154 24.4557 119.766 25.7526 119.766 27.4609V28.0391ZM108.172 27.8906C108.172 28.5 108.281 28.9974 108.5 29.3828C108.724 29.763 109.008 30.0625 109.352 30.2812C109.695 30.4948 110.06 30.6484 110.445 30.7422C110.831 30.8359 111.195 30.8932 111.539 30.9141C111.888 30.9297 112.167 30.9375 112.375 30.9375C112.583 30.9375 112.859 30.9297 113.203 30.9141C113.547 30.8932 113.911 30.8359 114.297 30.7422C114.688 30.6484 115.055 30.4948 115.398 30.2812C115.742 30.0625 116.023 29.763 116.242 29.3828C116.466 28.9974 116.578 28.5 116.578 27.8906V27.6016C116.578 26.9922 116.466 26.4974 116.242 26.1172C116.023 25.7318 115.742 25.4323 115.398 25.2188C115.055 25.0052 114.688 24.8516 114.297 24.7578C113.911 24.6641 113.547 24.6094 113.203 24.5938C112.859 24.5729 112.583 24.5625 112.375 24.5625C112.167 24.5625 111.888 24.5729 111.539 24.5938C111.195 24.6094 110.831 24.6641 110.445 24.7578C110.06 24.8516 109.695 25.0052 109.352 25.2188C109.008 25.4323 108.724 25.7318 108.5 26.1172C108.281 26.4974 108.172 26.9922 108.172 27.6016V27.8906ZM135.164 26.2891C135.164 27.1016 134.935 27.8255 134.477 28.4609C134.023 29.0964 133.432 29.5547 132.703 29.8359L135.164 33H131.781L129.672 30.0781H124.227V33H121.016V22.5H121.164H124.227H131.375C132.073 22.5 132.708 22.6719 133.281 23.0156C133.854 23.3542 134.31 23.8099 134.648 24.3828C134.992 24.9557 135.164 25.5911 135.164 26.2891ZM124.227 24.8281V27.75H130.5C130.901 27.75 131.242 27.6068 131.523 27.3203C131.81 27.0339 131.953 26.6901 131.953 26.2891C131.953 25.888 131.81 25.5443 131.523 25.2578C131.242 24.9714 130.901 24.8281 130.5 24.8281H124.227ZM149.789 22.5V24.8359H144.25V33H141.039V24.8359H135.5V22.5H149.789Z" fill="#183D3D"/>
<defs>
<filter id="filter0_d_608_18014" x="0" y="0" width="200" height="61" filterUnits="userSpaceOnUse" color-interpolation-filters="sRGB">
<feFlood flood-opacity="0" result="BackgroundImageFix"/>
<feColorMatrix in="SourceAlpha" type="matrix" values="0 0 0 0 0 0 0 0 0 0 0 0 0 0 0 0 0 0 127 0" result="hardAlpha"/>
<feOffset dx="5" dy="3"/>
<feGaussianBlur stdDeviation="2.5"/>
<feComposite in2="hardAlpha" operator="out"/>
<feColorMatrix type="matrix" values="0 0 0 0 0 0 0 0 0 0 0 0 0 0 0 0 0 0 0.25 0"/>
<feBlend mode="normal" in2="BackgroundImageFix" result="effect1_dropShadow_608_18014"/>
<feBlend mode="normal" in="SourceGraphic" in2="effect1_dropShadow_608_18014" result="shape"/>
</filter>
<linearGradient id="paint0_linear_608_18014" x1="0" y1="27.5" x2="190" y2="27.5" gradientUnits="userSpaceOnUse">
<stop offset="0.2" stop-color="#BEECD7"/>
<stop offset="1" stop-color="#82EEBD"/>
</linearGradient>
</defs>
</svg>
