<svg width="120" height="80" viewBox="0 0 120 80" fill="none" xmlns="http://www.w3.org/2000/svg">
<g filter="url(#filter0_d_459_134)">
<path fill-rule="evenodd" clip-rule="evenodd" d="M102 63.6084C109.18 63.6084 115 57.8758 115 50.8042C115 43.7326 109.18 38 102 38C94.8203 38 89 43.7326 89 50.8042C89 57.8758 94.8203 63.6084 102 63.6084ZM101.957 62.7783C108.777 62.7783 114.307 57.4291 114.307 50.8306C114.307 44.2321 108.777 38.883 101.957 38.883C95.1359 38.883 89.6066 44.2321 89.6066 50.8306C89.6066 57.4291 95.1359 62.7783 101.957 62.7783Z" fill="#93B1A6"/>
<path d="M114.5 50.8042C114.5 57.5925 108.911 63.1084 102 63.1084V64.1084C109.449 64.1084 115.5 58.159 115.5 50.8042H114.5ZM102 38.5C108.911 38.5 114.5 44.0159 114.5 50.8042H115.5C115.5 43.4494 109.449 37.5 102 37.5V38.5ZM89.5 50.8042C89.5 44.0159 95.0893 38.5 102 38.5V37.5C94.5513 37.5 88.5 43.4494 88.5 50.8042H89.5ZM102 63.1084C95.0893 63.1084 89.5 57.5925 89.5 50.8042H88.5C88.5 58.159 94.5513 64.1084 102 64.1084V63.1084ZM113.807 50.8306C113.807 57.1375 108.517 62.2783 101.957 62.2783V63.2783C109.038 63.2783 114.807 57.7208 114.807 50.8306H113.807ZM101.957 39.383C108.517 39.383 113.807 44.5238 113.807 50.8306H114.807C114.807 43.9405 109.038 38.383 101.957 38.383V39.383ZM90.1066 50.8306C90.1066 44.5238 95.3963 39.383 101.957 39.383V38.383C94.8755 38.383 89.1066 43.9405 89.1066 50.8306H90.1066ZM101.957 62.2783C95.3963 62.2783 90.1066 57.1375 90.1066 50.8306H89.1066C89.1066 57.7208 94.8755 63.2783 101.957 63.2783V62.2783Z" fill="#93B1A6"/>
</g>
<path d="M92.1631 58.575C96.6125 57.8404 98.9654 62.0811 102.13 61.3124C105.294 60.5438 114.288 57.4956 111.663 58.575L107.72 61.9306L102.043 63.211L96.9442 62.1657L92.1631 58.575Z" fill="#93B1A6"/>
<path d="M102.13 63.2993L107.72 61.9306M107.72 61.9306L111.663 58.575C114.288 57.4956 105.294 60.5438 102.13 61.3124C98.9654 62.0811 96.6125 57.8404 92.1631 58.575L96.9442 62.1657L102.043 63.211L107.72 61.9306Z" stroke="#93B1A6"/>
<path d="M92.0332 43.475C95.9057 41.0552 101.966 37.2268 102.221 40.7483C102.477 44.2697 108.455 41.5077 111.967 43.475L107.936 39.7744L102.133 38.3624L96.6843 39.2875L92.0332 43.475Z" fill="#93B1A6"/>
<path d="M102.221 38.265L107.936 39.7744M107.936 39.7744L111.967 43.475C108.455 41.5077 102.477 44.2697 102.221 40.7483C101.966 37.2268 95.9057 41.0552 92.0332 43.475L96.6843 39.2875L102.133 38.3624L107.936 39.7744Z" stroke="#93B1A6"/>
<path d="M96.7546 53.9004C96.2603 53.7606 95.9001 53.3379 95.8068 52.8525L100.287 54.1195L100.234 54.3659C100.177 54.6359 99.9144 54.794 99.6487 54.7188L96.7546 53.9004Z" fill="#93B1A6" stroke="#93B1A6" stroke-width="0.875985"/>
<path d="M100.887 46.9516L95.7367 47.7934C95.8698 47.542 96.1143 47.3518 96.4082 47.3037L100.849 46.5778L100.887 46.9516Z" fill="#93B1A6" stroke="#93B1A6"/>
<path d="M95.3733 52.0539L95.1269 49.0782C95.0781 48.4882 95.404 47.9441 95.9055 47.6873L96.3661 53.251C95.8314 53.1075 95.4221 52.6439 95.3733 52.0539Z" fill="#93B1A6" stroke="#93B1A6" stroke-width="0.945509"/>
<rect x="96.8945" y="50.6201" width="3.03252" height="2.51974" fill="#93B1A6" stroke="#93B1A6"/>
<mask id="path-11-inside-1_459_134" fill="white">
<ellipse cx="96.3903" cy="54.1664" rx="0.843385" ry="1.21209"/>
</mask>
<ellipse cx="96.3903" cy="54.1664" rx="0.843385" ry="1.21209" fill="#93B1A6"/>
<path d="M96.2336 54.1664C96.2336 54.3224 96.188 54.4204 96.1658 54.4524C96.1561 54.4663 96.1628 54.4508 96.1991 54.4288C96.2391 54.4044 96.306 54.3785 96.3903 54.3785V56.3785C97.0418 56.3785 97.5269 55.9978 97.8075 55.5947C98.0905 55.1879 98.2336 54.6799 98.2336 54.1664H96.2336ZM96.3903 54.3785C96.4745 54.3785 96.5414 54.4044 96.5814 54.4288C96.6177 54.4508 96.6245 54.4663 96.6147 54.4524C96.5925 54.4204 96.5469 54.3224 96.5469 54.1664H94.5469C94.5469 54.6799 94.69 55.1879 94.9731 55.5947C95.2536 55.9978 95.7388 56.3785 96.3903 56.3785V54.3785ZM96.5469 54.1664C96.5469 54.0105 96.5925 53.9125 96.6147 53.8805C96.6245 53.8666 96.6177 53.8821 96.5814 53.9041C96.5414 53.9284 96.4745 53.9543 96.3903 53.9543V51.9543C95.7388 51.9543 95.2536 52.335 94.9731 52.7382C94.69 53.1449 94.5469 53.653 94.5469 54.1664H96.5469ZM96.3903 53.9543C96.306 53.9543 96.2391 53.9284 96.1991 53.9041C96.1628 53.8821 96.1561 53.8666 96.1658 53.8805C96.188 53.9125 96.2336 54.0105 96.2336 54.1664H98.2336C98.2336 53.653 98.0905 53.1449 97.8075 52.7382C97.5269 52.335 97.0418 51.9543 96.3903 51.9543V53.9543Z" fill="#93B1A6" mask="url(#path-11-inside-1_459_134)"/>
<mask id="path-13-inside-2_459_134" fill="white">
<ellipse cx="99.3043" cy="54.8129" rx="0.843385" ry="1.21209"/>
</mask>
<ellipse cx="99.3043" cy="54.8129" rx="0.843385" ry="1.21209" fill="#93B1A6"/>
<path d="M99.1477 54.8129C99.1477 54.9689 99.1021 55.0669 99.0798 55.0988C99.0701 55.1128 99.0769 55.0973 99.1132 55.0752C99.1532 55.0509 99.2201 55.025 99.3043 55.025V57.025C99.9558 57.025 100.441 56.6443 100.722 56.2411C101.005 55.8344 101.148 55.3264 101.148 54.8129H99.1477ZM99.3043 55.025C99.3886 55.025 99.4555 55.0509 99.4955 55.0752C99.5317 55.0973 99.5385 55.1128 99.5288 55.0988C99.5066 55.0669 99.4609 54.9689 99.4609 54.8129H97.4609C97.4609 55.3264 97.6041 55.8344 97.8871 56.2411C98.1676 56.6443 98.6528 57.025 99.3043 57.025V55.025ZM99.4609 54.8129C99.4609 54.6569 99.5066 54.559 99.5288 54.527C99.5385 54.513 99.5317 54.5285 99.4955 54.5506C99.4555 54.5749 99.3886 54.6008 99.3043 54.6008V52.6008C98.6528 52.6008 98.1676 52.9815 97.8871 53.3847C97.6041 53.7914 97.4609 54.2995 97.4609 54.8129H99.4609ZM99.3043 54.6008C99.2201 54.6008 99.1532 54.5749 99.1132 54.5506C99.0769 54.5285 99.0701 54.513 99.0798 54.527C99.1021 54.559 99.1477 54.6569 99.1477 54.8129H101.148C101.148 54.2995 101.005 53.7914 100.722 53.3847C100.441 52.9815 99.9558 52.6008 99.3043 52.6008V54.6008Z" fill="#93B1A6" mask="url(#path-13-inside-2_459_134)"/>
<mask id="path-15-inside-3_459_134" fill="white">
<ellipse cx="105.745" cy="54.8937" rx="0.843385" ry="1.13128"/>
</mask>
<ellipse cx="105.745" cy="54.8937" rx="0.843385" ry="1.13128" fill="#93B1A6"/>
<path d="M105.588 54.8937C105.588 55.0121 105.551 55.0803 105.539 55.096C105.535 55.102 105.545 55.086 105.58 55.0663C105.617 55.0451 105.675 55.025 105.745 55.025V57.025C106.366 57.025 106.849 56.6852 107.143 56.2914C107.436 55.8976 107.588 55.4002 107.588 54.8937H105.588ZM105.745 55.025C105.815 55.025 105.872 55.0451 105.91 55.0663C105.945 55.086 105.955 55.102 105.95 55.096C105.938 55.0803 105.901 55.0121 105.901 54.8937H103.901C103.901 55.4002 104.053 55.8976 104.347 56.2914C104.64 56.6852 105.124 57.025 105.745 57.025V55.025ZM105.901 54.8937C105.901 54.7754 105.938 54.7072 105.95 54.6915C105.955 54.6854 105.945 54.7015 105.91 54.7211C105.872 54.7424 105.815 54.7625 105.745 54.7625V52.7625C105.124 52.7625 104.64 53.1023 104.347 53.4961C104.053 53.8899 103.901 54.3873 103.901 54.8937H105.901ZM105.745 54.7625C105.675 54.7625 105.617 54.7424 105.58 54.7211C105.545 54.7015 105.535 54.6854 105.539 54.6915C105.551 54.7072 105.588 54.7754 105.588 54.8937H107.588C107.588 54.3873 107.436 53.8899 107.143 53.4961C106.849 53.1023 106.366 52.7625 105.745 52.7625V54.7625Z" fill="#93B1A6" mask="url(#path-15-inside-3_459_134)"/>
<mask id="path-17-inside-4_459_134" fill="white">
<path fill-rule="evenodd" clip-rule="evenodd" d="M100.343 46.7818C100.344 46.1743 100.837 45.6829 101.445 45.6843L107.526 45.6981C108.631 45.7007 109.524 46.5981 109.522 47.7027L109.515 52.059L109.153 52.071C108.485 52.0932 107.956 52.6532 107.973 53.3218L109.513 53.2706L109.512 53.4774C109.51 54.582 108.613 55.4754 107.509 55.4729L101.628 55.4595C100.91 55.4579 100.329 54.8745 100.33 54.1566L100.343 46.7818ZM101.908 47.7517C101.908 47.1994 102.356 46.7517 102.908 46.7517L107.73 46.7517C108.282 46.7517 108.73 47.1994 108.73 47.7517V49.385C108.73 49.9372 108.282 50.385 107.73 50.385L102.908 50.385C102.356 50.385 101.908 49.9372 101.908 49.385L101.908 47.7517ZM104.794 52.6559L106.762 52.6559V52.9584L104.794 52.9584V52.6559ZM104.817 54.4724H103.876L104.208 54.0182H104.817C104.943 54.0182 105.044 54.1199 105.044 54.2453C105.044 54.3707 104.943 54.4724 104.817 54.4724ZM107.667 54.4724H106.726C106.6 54.4724 106.498 54.3707 106.498 54.2453C106.498 54.1199 106.6 54.0182 106.726 54.0182H107.336L107.667 54.4724ZM102.685 52.0381L102.059 52.0113L102.02 53.2215L103.856 53.3002C103.877 52.6318 103.353 52.0668 102.685 52.0381Z"/>
</mask>
<path fill-rule="evenodd" clip-rule="evenodd" d="M100.343 46.7818C100.344 46.1743 100.837 45.6829 101.445 45.6843L107.526 45.6981C108.631 45.7007 109.524 46.5981 109.522 47.7027L109.515 52.059L109.153 52.071C108.485 52.0932 107.956 52.6532 107.973 53.3218L109.513 53.2706L109.512 53.4774C109.51 54.582 108.613 55.4754 107.509 55.4729L101.628 55.4595C100.91 55.4579 100.329 54.8745 100.33 54.1566L100.343 46.7818ZM101.908 47.7517C101.908 47.1994 102.356 46.7517 102.908 46.7517L107.73 46.7517C108.282 46.7517 108.73 47.1994 108.73 47.7517V49.385C108.73 49.9372 108.282 50.385 107.73 50.385L102.908 50.385C102.356 50.385 101.908 49.9372 101.908 49.385L101.908 47.7517ZM104.794 52.6559L106.762 52.6559V52.9584L104.794 52.9584V52.6559ZM104.817 54.4724H103.876L104.208 54.0182H104.817C104.943 54.0182 105.044 54.1199 105.044 54.2453C105.044 54.3707 104.943 54.4724 104.817 54.4724ZM107.667 54.4724H106.726C106.6 54.4724 106.498 54.3707 106.498 54.2453C106.498 54.1199 106.6 54.0182 106.726 54.0182H107.336L107.667 54.4724ZM102.685 52.0381L102.059 52.0113L102.02 53.2215L103.856 53.3002C103.877 52.6318 103.353 52.0668 102.685 52.0381Z" fill="#93B1A6"/>
<path d="M101.445 45.6843L101.443 46.6843L101.445 45.6843ZM100.343 46.7818L101.343 46.7836L100.343 46.7818ZM107.526 45.6981L107.528 44.6981L107.526 45.6981ZM109.522 47.7027L110.522 47.7044L110.522 47.7044L109.522 47.7027ZM109.515 52.059L109.548 53.0584L110.513 53.0263L110.515 52.0607L109.515 52.059ZM109.153 52.071L109.12 51.0716L109.12 51.0716L109.153 52.071ZM107.973 53.3218L106.973 53.3468L106.999 54.3548L108.006 54.3213L107.973 53.3218ZM109.513 53.2706L110.513 53.2724L110.515 52.2368L109.479 52.2712L109.513 53.2706ZM109.512 53.4774L110.512 53.4792L110.512 53.4792L109.512 53.4774ZM107.509 55.4729L107.507 56.4729L107.507 56.4729L107.509 55.4729ZM101.628 55.4595L101.63 54.4595L101.63 54.4595L101.628 55.4595ZM100.33 54.1566L101.33 54.1583L100.33 54.1566ZM106.762 52.6559H107.762V51.6559H106.762V52.6559ZM104.794 52.6559V51.6559H103.794V52.6559H104.794ZM106.762 52.9584V53.9584H107.762V52.9584H106.762ZM104.794 52.9584H103.794V53.9584H104.794V52.9584ZM103.876 54.4724L103.068 53.8827L101.907 55.4724H103.876V54.4724ZM104.208 54.0182V53.0182H103.699L103.4 53.4285L104.208 54.0182ZM107.667 54.4724V55.4724H109.636L108.475 53.8827L107.667 54.4724ZM107.336 54.0182L108.143 53.4285L107.844 53.0182H107.336V54.0182ZM102.059 52.0113L102.102 51.0122L101.092 50.9689L101.06 51.9791L102.059 52.0113ZM102.685 52.0381L102.728 51.039L102.728 51.039L102.685 52.0381ZM102.02 53.2215L101.021 53.1893L100.989 54.1782L101.978 54.2206L102.02 53.2215ZM103.856 53.3002L103.813 54.2993L104.823 54.3426L104.855 53.3324L103.856 53.3002ZM101.447 44.6843C100.287 44.6817 99.345 45.6201 99.343 46.7801L101.343 46.7836C101.343 46.7286 101.388 46.6842 101.443 46.6843L101.447 44.6843ZM107.528 44.6981L101.447 44.6843L101.443 46.6843L107.524 46.6981L107.528 44.6981ZM110.522 47.7044C110.525 46.0478 109.185 44.7019 107.528 44.6981L107.524 46.6981C108.076 46.6994 108.523 47.1484 108.522 47.7009L110.522 47.7044ZM110.515 52.0607L110.522 47.7044L108.522 47.7009L108.515 52.0572L110.515 52.0607ZM109.186 53.0704L109.548 53.0584L109.482 51.0595L109.12 51.0716L109.186 53.0704ZM108.973 53.2969C108.97 53.1772 109.067 53.0744 109.186 53.0704L109.12 51.0716C107.903 51.112 106.943 52.1293 106.973 53.3468L108.973 53.2969ZM109.479 52.2712L107.94 52.3224L108.006 54.3213L109.546 54.2701L109.479 52.2712ZM110.512 53.4792L110.513 53.2724L108.513 53.2689L108.512 53.4757L110.512 53.4792ZM107.507 56.4729C109.164 56.4767 110.509 55.1362 110.512 53.4792L108.512 53.4757C108.511 54.0278 108.063 54.4742 107.511 54.4729L107.507 56.4729ZM101.626 56.4595L107.507 56.4729L107.511 54.4729L101.63 54.4595L101.626 56.4595ZM99.3301 54.1548C99.3279 55.4249 100.355 56.4566 101.626 56.4595L101.63 54.4595C101.464 54.4592 101.33 54.3242 101.33 54.1583L99.3301 54.1548ZM99.343 46.7801L99.3301 54.1548L101.33 54.1583L101.343 46.7836L99.343 46.7801ZM102.908 45.7517C101.804 45.7517 100.908 46.6471 100.908 47.7517L102.908 47.7517V47.7517V45.7517ZM107.73 45.7517H102.908V47.7517H107.73V45.7517ZM109.73 47.7517C109.73 46.6471 108.834 45.7517 107.73 45.7517V47.7517L107.73 47.7517H109.73ZM109.73 49.385V47.7517H107.73V49.385H109.73ZM107.73 51.385C108.834 51.385 109.73 50.4895 109.73 49.385H107.73L107.73 49.385V51.385ZM102.908 51.385L107.73 51.385V49.385H102.908V51.385ZM100.908 49.385C100.908 50.4895 101.804 51.385 102.908 51.385V49.385L102.908 49.385L100.908 49.385ZM100.908 47.7517V49.385L102.908 49.385V47.7517L100.908 47.7517ZM106.762 51.6559L104.794 51.6559V53.6559L106.762 53.6559V51.6559ZM107.762 52.9584V52.6559H105.762V52.9584H107.762ZM104.794 53.9584H106.762V51.9584L104.794 51.9584V53.9584ZM103.794 52.6559V52.9584L105.794 52.9584V52.6559L103.794 52.6559ZM103.876 55.4724H104.817V53.4724H103.876V55.4724ZM103.4 53.4285L103.068 53.8827L104.683 55.0621L105.015 54.608L103.4 53.4285ZM104.817 53.0182H104.208V55.0182H104.817V53.0182ZM106.044 54.2453C106.044 53.5676 105.495 53.0182 104.817 53.0182V55.0182C104.39 55.0182 104.044 54.6722 104.044 54.2453H106.044ZM104.817 55.4724C105.495 55.4724 106.044 54.923 106.044 54.2453H104.044C104.044 53.8184 104.39 53.4724 104.817 53.4724V55.4724ZM106.726 55.4724H107.667V53.4724H106.726V55.4724ZM105.498 54.2453C105.498 54.923 106.048 55.4724 106.726 55.4724V53.4724C107.152 53.4724 107.498 53.8184 107.498 54.2453H105.498ZM106.726 53.0182C106.048 53.0182 105.498 53.5676 105.498 54.2453H107.498C107.498 54.6722 107.152 55.0182 106.726 55.0182V53.0182ZM107.336 53.0182H106.726V55.0182H107.336V53.0182ZM108.475 53.8827L108.143 53.4285L106.528 54.608L106.86 55.0621L108.475 53.8827ZM102.017 53.0104L102.642 53.0372L102.728 51.039L102.102 51.0122L102.017 53.0104ZM103.02 53.2537L103.059 52.0435L101.06 51.9791L101.021 53.1893L103.02 53.2537ZM103.899 52.3012L102.063 52.2224L101.978 54.2206L103.813 54.2993L103.899 52.3012ZM102.642 53.0372C102.763 53.0424 102.86 53.1475 102.856 53.2681L104.855 53.3324C104.894 52.1162 103.944 51.0912 102.728 51.039L102.642 53.0372Z" fill="#93B1A6" mask="url(#path-17-inside-4_459_134)"/>
<g filter="url(#filter1_d_459_134)">
<path d="M51.7188 61.8193H56.5381C56.8457 61.8193 57.0986 61.5117 57.0986 61.2041C57.0986 60.8965 56.8457 60.5889 56.5381 60.5889H51.7188V61.8193ZM55.8682 57H51.7188V58.2373H55.8682C56.1758 58.2373 56.4287 57.9229 56.4287 57.6152C56.4287 57.3076 56.1758 57 55.8682 57ZM58.7256 59.2559C59.7646 59.5908 60.4619 60.3838 60.4619 61.5391C60.4824 63.1455 59.1289 64.0068 57.5498 64.0068H48.1367V54.8193H56.873C58.4658 54.8125 59.8125 55.6807 59.792 57.2803C59.792 58.1621 59.3818 58.8389 58.7256 59.2559ZM70.1416 59.5156V54.8057H73.7305V59.7412C73.7441 63.2139 70.9004 64.2119 67.4551 64.2188C64.0098 64.2119 61.166 63.2139 61.1797 59.7412V54.8057H64.7617V59.5156C64.748 61.0264 65.9854 61.2861 67.4551 61.3066C68.918 61.2861 70.1621 61.0264 70.1416 59.5156ZM78.5088 57.834C78.5088 58.2373 79.623 58.292 81.0654 58.3604C83.6289 58.4902 87.2314 58.668 87.2246 60.9717C87.2246 63.5967 84.2168 64.2188 80.9902 64.2188C77.7705 64.2119 75.0977 63.8223 74.7559 60.9717H78.5088C78.9189 61.6826 79.8691 61.8672 80.9902 61.8672C82.1045 61.8672 83.4717 61.6826 83.4717 60.9717C83.4717 60.5684 82.3574 60.5068 80.915 60.4385C78.3516 60.3086 74.749 60.1309 74.7559 57.834C74.7559 55.209 77.7637 54.5801 80.9902 54.5801C84.21 54.6006 86.8828 54.9629 87.2246 57.834H83.4717C83.0615 57.1094 82.1113 56.9385 80.9902 56.9385C79.876 56.9385 78.5088 57.1025 78.5088 57.834Z" fill="#93B1A6"/>
</g>
<g filter="url(#filter2_d_459_134)">
<path d="M48.1562 39.4922H52.25V49.9922H48.1562V39.4922ZM63.5781 45.6406H67.7734C67.5156 49.1875 64.4062 50.25 60.625 50.25C56.6875 50.2422 53.4375 49.1016 53.4531 45.125V44.3594C53.4375 40.3906 56.6875 39.25 60.625 39.2344C64.4062 39.2422 67.5156 40.3047 67.7734 43.8438H63.5781C63.1953 42.8125 62.0312 42.5703 60.625 42.5703C58.9531 42.5938 57.5312 42.8906 57.5547 44.6172V44.875C57.5312 46.5859 58.9531 46.8984 60.625 46.9219C62.0312 46.9219 63.2031 46.6719 63.5781 45.6406ZM69 39.5H79.1172C81.2812 39.4766 83.1172 41.2969 83.0859 43.4688C83.0859 44.2578 82.875 44.9766 82.4531 45.6172C82.0391 46.25 81.4844 46.7344 80.7969 47.0547L83.0859 50H78.7266L76.75 47.4375H73.0938V50H69V39.5ZM78.0859 42.5703H73.0938V44.3594H78.0859C78.3359 44.3594 78.5469 44.2734 78.7188 44.1016C78.8984 43.9219 78.9844 43.7109 78.9844 43.4688C78.9844 42.9688 78.5859 42.5703 78.0859 42.5703Z" fill="#93B1A6"/>
<path d="M28.944 64V47.936L23.44 56.384L17.872 48V64H5.52V15.488L23.504 41.6L41.296 15.488V64H28.944Z" fill="#93B1A6"/>
</g>
<defs>
<filter id="filter0_d_459_134" x="84.5" y="37.5" width="35" height="34.6084" filterUnits="userSpaceOnUse" color-interpolation-filters="sRGB">
<feFlood flood-opacity="0" result="BackgroundImageFix"/>
<feColorMatrix in="SourceAlpha" type="matrix" values="0 0 0 0 0 0 0 0 0 0 0 0 0 0 0 0 0 0 127 0" result="hardAlpha"/>
<feOffset dy="4"/>
<feGaussianBlur stdDeviation="2"/>
<feComposite in2="hardAlpha" operator="out"/>
<feColorMatrix type="matrix" values="0 0 0 0 0 0 0 0 0 0 0 0 0 0 0 0 0 0 0.25 0"/>
<feBlend mode="normal" in2="BackgroundImageFix" result="effect1_dropShadow_459_134"/>
<feBlend mode="normal" in="SourceGraphic" in2="effect1_dropShadow_459_134" result="shape"/>
</filter>
<filter id="filter1_d_459_134" x="43.1367" y="49.5801" width="59.0947" height="29.6387" filterUnits="userSpaceOnUse" color-interpolation-filters="sRGB">
<feFlood flood-opacity="0" result="BackgroundImageFix"/>
<feColorMatrix in="SourceAlpha" type="matrix" values="0 0 0 0 0 0 0 0 0 0 0 0 0 0 0 0 0 0 127 0" result="hardAlpha"/>
<feOffset dx="5" dy="5"/>
<feGaussianBlur stdDeviation="5"/>
<feComposite in2="hardAlpha" operator="out"/>
<feColorMatrix type="matrix" values="0 0 0 0 0 0 0 0 0 0 0 0 0 0 0 0 0 0 0.25 0"/>
<feBlend mode="normal" in2="BackgroundImageFix" result="effect1_dropShadow_459_134"/>
<feBlend mode="normal" in="SourceGraphic" in2="effect1_dropShadow_459_134" result="shape"/>
</filter>
<filter id="filter2_d_459_134" x="0.519531" y="10.488" width="97.5977" height="68.512" filterUnits="userSpaceOnUse" color-interpolation-filters="sRGB">
<feFlood flood-opacity="0" result="BackgroundImageFix"/>
<feColorMatrix in="SourceAlpha" type="matrix" values="0 0 0 0 0 0 0 0 0 0 0 0 0 0 0 0 0 0 127 0" result="hardAlpha"/>
<feOffset dx="5" dy="5"/>
<feGaussianBlur stdDeviation="5"/>
<feComposite in2="hardAlpha" operator="out"/>
<feColorMatrix type="matrix" values="0 0 0 0 0 0 0 0 0 0 0 0 0 0 0 0 0 0 0.25 0"/>
<feBlend mode="normal" in2="BackgroundImageFix" result="effect1_dropShadow_459_134"/>
<feBlend mode="normal" in="SourceGraphic" in2="effect1_dropShadow_459_134" result="shape"/>
</filter>
</defs>
</svg>
