<svg width="315" height="207" viewBox="0 0 315 207" fill="none" xmlns="http://www.w3.org/2000/svg">
<g filter="url(#filter0_bd_488_481)">
<path d="M5 35C5 18.4315 18.4315 5 35 5H270C286.569 5 300 18.4315 300 35V162C300 178.569 286.569 192 270 192H35C18.4315 192 5 178.569 5 162V35Z" fill="url(#paint0_linear_488_481)" shape-rendering="crispEdges"/>
<path d="M35 6.5H270C285.74 6.5 298.5 19.2599 298.5 35V162C298.5 177.74 285.74 190.5 270 190.5H35C19.2599 190.5 6.5 177.74 6.5 162V35C6.5 19.2599 19.2599 6.5 35 6.5Z" stroke="url(#paint1_linear_488_481)" stroke-width="3" shape-rendering="crispEdges"/>
</g>
<defs>
<filter id="filter0_bd_488_481" x="-15" y="-15" width="335" height="227" filterUnits="userSpaceOnUse" color-interpolation-filters="sRGB">
<feFlood flood-opacity="0" result="BackgroundImageFix"/>
<feGaussianBlur in="BackgroundImageFix" stdDeviation="10"/>
<feComposite in2="SourceAlpha" operator="in" result="effect1_backgroundBlur_488_481"/>
<feColorMatrix in="SourceAlpha" type="matrix" values="0 0 0 0 0 0 0 0 0 0 0 0 0 0 0 0 0 0 127 0" result="hardAlpha"/>
<feOffset dx="5" dy="5"/>
<feGaussianBlur stdDeviation="5"/>
<feComposite in2="hardAlpha" operator="out"/>
<feColorMatrix type="matrix" values="0 0 0 0 0 0 0 0 0 0 0 0 0 0 0 0 0 0 0.1 0"/>
<feBlend mode="normal" in2="effect1_backgroundBlur_488_481" result="effect2_dropShadow_488_481"/>
<feBlend mode="normal" in="SourceGraphic" in2="effect2_dropShadow_488_481" result="shape"/>
</filter>
<linearGradient id="paint0_linear_488_481" x1="82.4171" y1="5" x2="197.022" y2="203.021" gradientUnits="userSpaceOnUse">
<stop stop-color="#E2DFDF" stop-opacity="0.4"/>
<stop offset="1" stop-color="#E2DFDF" stop-opacity="0.1"/>
</linearGradient>
<linearGradient id="paint1_linear_488_481" x1="105.642" y1="12.7" x2="217.615" y2="202.844" gradientUnits="userSpaceOnUse">
<stop stop-color="white" stop-opacity="0.5"/>
<stop offset="0.288461" stop-color="white" stop-opacity="0.5"/>
<stop offset="0.606858" stop-color="white" stop-opacity="0.5"/>
<stop offset="1" stop-color="#183D3D" stop-opacity="0.3"/>
</linearGradient>
</defs>
</svg>
