<svg width="130" height="517" viewBox="0 0 130 517" fill="none" xmlns="http://www.w3.org/2000/svg">
<path fill-rule="evenodd" clip-rule="evenodd" d="M103.046 517C99.1577 517 95.6222 514.747 93.9807 511.222L74.065 468.463C70.4768 460.759 59.5232 460.759 55.935 468.463L36.0193 511.222C34.3778 514.747 30.8423 517 26.9544 517H10C4.47715 517 0 512.523 0 507V112.25C0 106.727 4.47715 102.25 10 102.25H25.8801C33.1931 102.25 38.0327 94.6571 34.9451 88.0279L0.935027 15.0075C0.319137 13.6852 0 12.2441 0 10.7854V10C0 4.47715 4.47715 0 10 0H120C125.523 0 130 4.47715 130 10V175.785C130 177.244 129.681 178.685 129.065 180.008L95.0549 253.028C91.9673 259.657 96.8069 267.25 104.12 267.25H120C125.523 267.25 130 271.727 130 277.25V507C130 512.523 125.523 517 120 517H103.046Z" fill="#183D3D"/>
</svg>
