<svg width="130" height="517" viewBox="0 0 130 517" fill="none" xmlns="http://www.w3.org/2000/svg">
<path fill-rule="evenodd" clip-rule="evenodd" d="M26.9544 0C30.8423 0 34.3778 2.25349 36.0193 5.77789L55.935 48.5373C59.5232 56.2412 70.4768 56.2411 74.065 48.5373L93.9807 5.77788C95.6222 2.25348 99.1577 0 103.046 0H120C125.523 0 130 4.47715 130 10V404.75C130 410.273 125.523 414.75 120 414.75H104.12C96.8069 414.75 91.9673 422.343 95.0549 428.972L129.065 501.992C129.681 503.315 130 504.756 130 506.215V507C130 512.523 125.523 517 120 517H10C4.47715 517 0 512.523 0 507V341.215C0 339.756 0.319136 338.315 0.935027 336.992L34.9451 263.972C38.0327 257.343 33.1931 249.75 25.8801 249.75H10C4.47715 249.75 0 245.273 0 239.75V10C0 4.47715 4.47714 0 9.99999 0H26.9544Z" fill="#183D3D"/>
</svg>
