<svg width="200" height="61" viewBox="0 0 200 61" fill="none" xmlns="http://www.w3.org/2000/svg">
<g filter="url(#filter0_d_608_18172)">
<path d="M0 27.5C0 13.4167 11.4167 2 25.5 2H164.5C178.583 2 190 13.4167 190 27.5V27.5C190 41.5833 178.583 53 164.5 53H95H25.5C11.4167 53 0 41.5833 0 27.5V27.5Z" fill="url(#paint0_linear_608_18172)"/>
</g>
<path d="M52.1328 24.6016H42.3594V26.7422H52.1328V28.75H42.3594V30.8906H52.1328V33H39.1562V22.5H52.1328V24.6016ZM60.5 30.9297C60.7292 30.9297 61.0365 30.9193 61.4219 30.8984C61.8125 30.8724 62.2188 30.7995 62.6406 30.6797C63.0625 30.5547 63.4479 30.3516 63.7969 30.0703C64.1458 29.7891 64.401 29.3958 64.5625 28.8906H67.8359C67.6432 30.3229 66.9401 31.4089 65.7266 32.1484C64.513 32.8828 62.7708 33.25 60.5 33.25C58.0156 33.25 56.1615 32.8073 54.9375 31.9219C53.7188 31.0365 53.1094 29.7396 53.1094 28.0312V27.4531C53.1094 25.7448 53.7188 24.4479 54.9375 23.5625C56.1615 22.6771 58.0156 22.2344 60.5 22.2344C62.7708 22.2344 64.513 22.6042 65.7266 23.3438C66.9401 24.0781 67.6432 25.1589 67.8359 26.5859H64.5625C64.401 26.0859 64.1458 25.6953 63.7969 25.4141C63.4479 25.1328 63.0625 24.9323 62.6406 24.8125C62.2188 24.6875 61.8125 24.6146 61.4219 24.5938C61.0365 24.5677 60.7292 24.5547 60.5 24.5547C60.2917 24.5547 60.013 24.5651 59.6641 24.5859C59.3203 24.6016 58.9557 24.6562 58.5703 24.75C58.1849 24.8438 57.8203 24.9974 57.4766 25.2109C57.1328 25.4245 56.849 25.724 56.625 26.1094C56.4062 26.4896 56.2969 26.9844 56.2969 27.5938V27.8828C56.2969 28.4922 56.4062 28.9896 56.625 29.375C56.849 29.7552 57.1328 30.0547 57.4766 30.2734C57.8203 30.487 58.1849 30.6406 58.5703 30.7344C58.9557 30.8281 59.3203 30.8854 59.6641 30.9062C60.013 30.9219 60.2917 30.9297 60.5 30.9297ZM83.5156 28.0391C83.5156 29.7422 82.9036 31.0365 81.6797 31.9219C80.4609 32.8073 78.6094 33.25 76.125 33.25C73.6354 33.25 71.7812 32.8073 70.5625 31.9219C69.3438 31.0365 68.7344 29.7422 68.7344 28.0391V27.4609C68.7344 25.7526 69.3438 24.4557 70.5625 23.5703C71.7812 22.6849 73.6354 22.2422 76.125 22.2422C78.6094 22.2422 80.4609 22.6849 81.6797 23.5703C82.9036 24.4557 83.5156 25.7526 83.5156 27.4609V28.0391ZM71.9219 27.8906C71.9219 28.5 72.0312 28.9974 72.25 29.3828C72.474 29.763 72.7578 30.0625 73.1016 30.2812C73.4453 30.4948 73.8099 30.6484 74.1953 30.7422C74.5807 30.8359 74.9453 30.8932 75.2891 30.9141C75.638 30.9297 75.9167 30.9375 76.125 30.9375C76.3333 30.9375 76.6094 30.9297 76.9531 30.9141C77.2969 30.8932 77.6615 30.8359 78.0469 30.7422C78.4375 30.6484 78.8047 30.4948 79.1484 30.2812C79.4922 30.0625 79.7734 29.763 79.9922 29.3828C80.2161 28.9974 80.3281 28.5 80.3281 27.8906V27.6016C80.3281 26.9922 80.2161 26.4974 79.9922 26.1172C79.7734 25.7318 79.4922 25.4323 79.1484 25.2188C78.8047 25.0052 78.4375 24.8516 78.0469 24.7578C77.6615 24.6641 77.2969 24.6094 76.9531 24.5938C76.6094 24.5729 76.3333 24.5625 76.125 24.5625C75.9167 24.5625 75.638 24.5729 75.2891 24.5938C74.9453 24.6094 74.5807 24.6641 74.1953 24.7578C73.8099 24.8516 73.4453 25.0052 73.1016 25.2188C72.7578 25.4323 72.474 25.7318 72.25 26.1172C72.0312 26.4974 71.9219 26.9922 71.9219 27.6016V27.8906ZM99.6406 33H95.4453L87.9688 24.6328V33H84.7656V22.5H90.1094L96.4297 29.8438V22.5H99.6406V33ZM115.781 28.0391C115.781 29.7422 115.169 31.0365 113.945 31.9219C112.727 32.8073 110.875 33.25 108.391 33.25C105.901 33.25 104.047 32.8073 102.828 31.9219C101.609 31.0365 101 29.7422 101 28.0391V27.4609C101 25.7526 101.609 24.4557 102.828 23.5703C104.047 22.6849 105.901 22.2422 108.391 22.2422C110.875 22.2422 112.727 22.6849 113.945 23.5703C115.169 24.4557 115.781 25.7526 115.781 27.4609V28.0391ZM104.188 27.8906C104.188 28.5 104.297 28.9974 104.516 29.3828C104.74 29.763 105.023 30.0625 105.367 30.2812C105.711 30.4948 106.076 30.6484 106.461 30.7422C106.846 30.8359 107.211 30.8932 107.555 30.9141C107.904 30.9297 108.182 30.9375 108.391 30.9375C108.599 30.9375 108.875 30.9297 109.219 30.9141C109.562 30.8932 109.927 30.8359 110.312 30.7422C110.703 30.6484 111.07 30.4948 111.414 30.2812C111.758 30.0625 112.039 29.763 112.258 29.3828C112.482 28.9974 112.594 28.5 112.594 27.8906V27.6016C112.594 26.9922 112.482 26.4974 112.258 26.1172C112.039 25.7318 111.758 25.4323 111.414 25.2188C111.07 25.0052 110.703 24.8516 110.312 24.7578C109.927 24.6641 109.562 24.6094 109.219 24.5938C108.875 24.5729 108.599 24.5625 108.391 24.5625C108.182 24.5625 107.904 24.5729 107.555 24.5938C107.211 24.6094 106.846 24.6641 106.461 24.7578C106.076 24.8516 105.711 25.0052 105.367 25.2188C105.023 25.4323 104.74 25.7318 104.516 26.1172C104.297 26.4974 104.188 26.9922 104.188 27.6016V27.8906ZM131.82 22.5H136.57V33H133.359V25.1172L127.594 33H126L120.234 25.1172V33H117.031V22.5H121.781L126.797 28.9375L131.82 22.5ZM148.195 22.5H151.812L145.953 29.3828V33H142.75V29.3828L136.891 22.5H140.508L144.352 27.2266L148.195 22.5Z" fill="white"/>
<defs>
<filter id="filter0_d_608_18172" x="0" y="0" width="200" height="61" filterUnits="userSpaceOnUse" color-interpolation-filters="sRGB">
<feFlood flood-opacity="0" result="BackgroundImageFix"/>
<feColorMatrix in="SourceAlpha" type="matrix" values="0 0 0 0 0 0 0 0 0 0 0 0 0 0 0 0 0 0 127 0" result="hardAlpha"/>
<feOffset dx="5" dy="3"/>
<feGaussianBlur stdDeviation="2.5"/>
<feComposite in2="hardAlpha" operator="out"/>
<feColorMatrix type="matrix" values="0 0 0 0 0 0 0 0 0 0 0 0 0 0 0 0 0 0 0.25 0"/>
<feBlend mode="normal" in2="BackgroundImageFix" result="effect1_dropShadow_608_18172"/>
<feBlend mode="normal" in="SourceGraphic" in2="effect1_dropShadow_608_18172" result="shape"/>
</filter>
<linearGradient id="paint0_linear_608_18172" x1="0" y1="27.5" x2="190" y2="27.5" gradientUnits="userSpaceOnUse">
<stop offset="0.2" stop-color="#548080"/>
<stop offset="1" stop-color="#183D3D"/>
</linearGradient>
</defs>
</svg>
