<svg width="328" height="218" viewBox="0 0 328 218" fill="none" xmlns="http://www.w3.org/2000/svg">
<mask id="path-1-outside-1_598_17878" maskUnits="userSpaceOnUse" x="261" y="131" width="67" height="64" fill="black">
<rect fill="white" x="261" y="131" width="67" height="64"/>
<path fill-rule="evenodd" clip-rule="evenodd" d="M294.104 192.491C311.282 192.491 325.208 179.174 325.208 162.746C325.208 146.318 311.282 133 294.104 133C276.926 133 263 146.318 263 162.746C263 179.174 276.926 192.491 294.104 192.491ZM294 190.563C310.319 190.563 323.549 178.136 323.549 162.807C323.549 147.478 310.319 135.051 294 135.051C277.681 135.051 264.451 147.478 264.451 162.807C264.451 178.136 277.681 190.563 294 190.563Z"/>
</mask>
<path fill-rule="evenodd" clip-rule="evenodd" d="M294.104 192.491C311.282 192.491 325.208 179.174 325.208 162.746C325.208 146.318 311.282 133 294.104 133C276.926 133 263 146.318 263 162.746C263 179.174 276.926 192.491 294.104 192.491ZM294 190.563C310.319 190.563 323.549 178.136 323.549 162.807C323.549 147.478 310.319 135.051 294 135.051C277.681 135.051 264.451 147.478 264.451 162.807C264.451 178.136 277.681 190.563 294 190.563Z" fill="#183D3D"/>
<path d="M323.208 162.746C323.208 177.986 310.262 190.491 294.104 190.491V194.491C312.301 194.491 327.208 180.362 327.208 162.746H323.208ZM294.104 135C310.262 135 323.208 147.505 323.208 162.746H327.208C327.208 145.13 312.301 131 294.104 131V135ZM265 162.746C265 147.505 277.945 135 294.104 135V131C275.906 131 261 145.13 261 162.746H265ZM294.104 190.491C277.945 190.491 265 177.986 265 162.746H261C261 180.362 275.906 194.491 294.104 194.491V190.491ZM321.549 162.807C321.549 176.916 309.334 188.563 294 188.563V192.563C311.304 192.563 325.549 179.357 325.549 162.807H321.549ZM294 137.051C309.334 137.051 321.549 148.699 321.549 162.807H325.549C325.549 146.257 311.304 133.051 294 133.051V137.051ZM266.451 162.807C266.451 148.699 278.666 137.051 294 137.051V133.051C276.696 133.051 262.451 146.257 262.451 162.807H266.451ZM294 188.563C278.666 188.563 266.451 176.916 266.451 162.807H262.451C262.451 179.357 276.696 192.563 294 192.563V188.563Z" fill="#183D3D" mask="url(#path-1-outside-1_598_17878)"/>
<path d="M270.568 180.798C281.214 179.092 286.844 188.943 294.415 187.158C301.986 185.372 323.505 178.29 317.224 180.798L307.789 188.594L294.207 191.568L282.008 189.14L270.568 180.798Z" fill="#183D3D"/>
<path d="M294.415 191.773L307.789 188.594M307.789 188.594L317.224 180.798C323.505 178.29 301.986 185.372 294.415 187.158C286.844 188.943 281.214 179.092 270.568 180.798L282.008 189.14L294.207 191.568L307.789 188.594Z" stroke="#183D3D"/>
<path d="M270.257 145.719C279.523 140.098 294.023 131.204 294.633 139.384C295.244 147.565 309.547 141.149 317.95 145.719L308.305 137.122L294.422 133.842L281.386 135.991L270.257 145.719Z" fill="#183D3D"/>
<path d="M294.633 133.616L308.305 137.122M308.305 137.122L317.95 145.719C309.547 141.149 295.244 147.565 294.633 139.384C294.023 131.204 279.523 140.098 270.257 145.719L281.386 135.991L294.422 133.842L308.305 137.122Z" stroke="#183D3D"/>
<path d="M278.521 166.607L290.817 169.984L290.264 172.499C290.204 172.769 289.941 172.928 289.674 172.855L280.368 170.3C278.983 169.919 278.111 168.474 278.419 167.072L278.521 166.607Z" fill="#183D3D" stroke="#183D3D"/>
<mask id="path-8-inside-2_598_17878" fill="white">
<path d="M276.634 156.378C276.417 155.279 277.122 154.169 278.21 153.899L290.235 150.918C290.342 150.891 290.446 150.958 290.467 151.066L290.822 152.86L276.634 156.378V156.378Z"/>
</mask>
<path d="M276.634 156.378C276.417 155.279 277.122 154.169 278.21 153.899L290.235 150.918C290.342 150.891 290.446 150.958 290.467 151.066L290.822 152.86L276.634 156.378V156.378Z" fill="#183D3D" stroke="#183D3D" stroke-width="2" mask="url(#path-8-inside-2_598_17878)"/>
<path d="M277.674 167.111L276.848 157.421C276.731 156.045 277.749 154.812 279.122 154.666L280.139 154.558L281.39 169.231L280.373 169.339C279 169.484 277.792 168.487 277.674 167.111Z" fill="#183D3D" stroke="#183D3D"/>
<rect x="281.192" y="161.657" width="8.6482" height="7.17678" fill="#183D3D" stroke="#183D3D"/>
<path d="M282.2 170.556C282.2 171.241 282.001 171.841 281.703 172.256C281.405 172.673 281.037 172.872 280.682 172.872C280.328 172.872 279.96 172.673 279.662 172.256C279.364 171.841 279.165 171.241 279.165 170.556C279.165 169.871 279.364 169.272 279.662 168.857C279.96 168.44 280.328 168.241 280.682 168.241C281.037 168.241 281.405 168.44 281.703 168.857C282.001 169.272 282.2 169.871 282.2 170.556Z" fill="#183D3D" stroke="#183D3D"/>
<path d="M289.172 172.059C289.172 172.744 288.972 173.343 288.674 173.758C288.376 174.175 288.008 174.374 287.654 174.374C287.299 174.374 286.932 174.175 286.633 173.758C286.335 173.343 286.136 172.744 286.136 172.059C286.136 171.374 286.335 170.774 286.633 170.359C286.932 169.942 287.299 169.743 287.654 169.743C288.008 169.743 288.376 169.942 288.674 170.359C288.972 170.774 289.172 171.374 289.172 172.059Z" fill="#183D3D" stroke="#183D3D"/>
<path d="M304.58 172.246C304.58 172.871 304.385 173.419 304.093 173.8C303.801 174.18 303.432 174.374 303.062 174.374C302.693 174.374 302.324 174.18 302.032 173.8C301.74 173.419 301.544 172.871 301.544 172.246C301.544 171.621 301.74 171.073 302.032 170.692C302.324 170.312 302.693 170.118 303.062 170.118C303.432 170.118 303.801 170.312 304.093 170.692C304.385 171.073 304.58 171.621 304.58 172.246Z" fill="#183D3D" stroke="#183D3D"/>
<mask id="path-14-inside-3_598_17878" fill="white">
<path fill-rule="evenodd" clip-rule="evenodd" d="M290.139 151.946C290.14 151.338 290.633 150.847 291.241 150.848L306.107 150.881C309.421 150.889 312.103 153.581 312.097 156.895L312.081 165.661L310.319 165.718C309.215 165.753 308.343 166.677 308.372 167.782L308.393 168.595L312.013 168.478C311.584 171.376 309.083 173.596 306.067 173.589L291.4 173.557C290.682 173.555 290.101 172.972 290.103 172.254L290.139 151.946ZM293.882 157.552C293.882 155.221 295.771 153.331 298.102 153.331H305.983C308.314 153.331 310.204 155.221 310.204 157.552C310.204 159.883 308.314 161.772 305.983 161.772H298.102C295.771 161.772 293.882 159.883 293.882 157.552ZM300.787 167.047H305.496V167.75H300.787V167.047ZM300.858 171.268H298.59L299.383 170.213H300.858C301.149 170.213 301.386 170.449 301.386 170.74C301.386 171.032 301.149 171.268 300.858 171.268ZM307.663 171.268H305.395C305.104 171.268 304.868 171.032 304.868 170.74C304.868 170.449 305.104 170.213 305.395 170.213H306.87L307.663 171.268ZM296.637 165.65L294.244 165.55L294.151 168.362L298.542 168.545L298.569 167.732C298.605 166.628 297.74 165.696 296.637 165.65Z"/>
</mask>
<path fill-rule="evenodd" clip-rule="evenodd" d="M290.139 151.946C290.14 151.338 290.633 150.847 291.241 150.848L306.107 150.881C309.421 150.889 312.103 153.581 312.097 156.895L312.081 165.661L310.319 165.718C309.215 165.753 308.343 166.677 308.372 167.782L308.393 168.595L312.013 168.478C311.584 171.376 309.083 173.596 306.067 173.589L291.4 173.557C290.682 173.555 290.101 172.972 290.103 172.254L290.139 151.946ZM293.882 157.552C293.882 155.221 295.771 153.331 298.102 153.331H305.983C308.314 153.331 310.204 155.221 310.204 157.552C310.204 159.883 308.314 161.772 305.983 161.772H298.102C295.771 161.772 293.882 159.883 293.882 157.552ZM300.787 167.047H305.496V167.75H300.787V167.047ZM300.858 171.268H298.59L299.383 170.213H300.858C301.149 170.213 301.386 170.449 301.386 170.74C301.386 171.032 301.149 171.268 300.858 171.268ZM307.663 171.268H305.395C305.104 171.268 304.868 171.032 304.868 170.74C304.868 170.449 305.104 170.213 305.395 170.213H306.87L307.663 171.268ZM296.637 165.65L294.244 165.55L294.151 168.362L298.542 168.545L298.569 167.732C298.605 166.628 297.74 165.696 296.637 165.65Z" fill="#183D3D"/>
<path d="M291.241 150.848L291.239 151.848L291.241 150.848ZM290.139 151.946L289.139 151.944L290.139 151.946ZM306.107 150.881L306.11 149.881L306.107 150.881ZM312.097 156.895L311.097 156.893L311.097 156.893L312.097 156.895ZM312.081 165.661L312.113 166.66L313.079 166.629L313.081 165.663L312.081 165.661ZM310.319 165.718L310.287 164.718L310.287 164.718L310.319 165.718ZM308.372 167.782L309.372 167.756L309.372 167.756L308.372 167.782ZM308.393 168.595L307.393 168.62L307.419 169.627L308.425 169.594L308.393 168.595ZM312.013 168.478L313.002 168.624L313.177 167.44L311.98 167.478L312.013 168.478ZM306.067 173.589L306.065 174.589L306.065 174.589L306.067 173.589ZM291.4 173.557L291.402 172.557L291.402 172.557L291.4 173.557ZM290.103 172.254L289.103 172.252L290.103 172.254ZM305.496 167.047H306.496V166.047H305.496V167.047ZM300.787 167.047V166.047H299.787V167.047H300.787ZM305.496 167.75V168.75H306.496V167.75H305.496ZM300.787 167.75H299.787V168.75H300.787V167.75ZM298.59 171.268L297.791 170.667L296.587 172.268H298.59V171.268ZM299.383 170.213V169.213H298.884L298.584 169.612L299.383 170.213ZM307.663 171.268V172.268H309.666L308.462 170.667L307.663 171.268ZM306.87 170.213L307.669 169.612L307.369 169.213H306.87V170.213ZM294.244 165.55L294.285 164.551L293.278 164.509L293.244 165.517L294.244 165.55ZM296.637 165.65L296.678 164.651L296.678 164.651L296.637 165.65ZM294.151 168.362L293.151 168.329L293.118 169.32L294.109 169.361L294.151 168.362ZM298.542 168.545L298.5 169.544L299.508 169.586L299.541 168.578L298.542 168.545ZM298.569 167.732L299.568 167.765L299.568 167.765L298.569 167.732ZM291.243 149.848C290.083 149.846 289.141 150.784 289.139 151.944L291.139 151.948C291.139 151.893 291.184 151.848 291.239 151.848L291.243 149.848ZM306.11 149.881L291.243 149.848L291.239 151.848L306.105 151.881L306.11 149.881ZM313.097 156.896C313.104 153.031 309.976 149.89 306.11 149.881L306.105 151.881C308.867 151.888 311.102 154.131 311.097 156.893L313.097 156.896ZM313.081 165.663L313.097 156.896L311.097 156.893L311.081 165.659L313.081 165.663ZM310.352 166.717L312.113 166.66L312.049 164.661L310.287 164.718L310.352 166.717ZM309.372 167.756C309.357 167.201 309.797 166.735 310.352 166.717L310.287 164.718C308.634 164.772 307.33 166.154 307.372 167.807L309.372 167.756ZM309.392 168.569L309.372 167.756L307.372 167.807L307.393 168.62L309.392 168.569ZM311.98 167.478L308.36 167.595L308.425 169.594L312.045 169.477L311.98 167.478ZM306.065 174.589C309.585 174.597 312.501 172.006 313.002 168.624L311.023 168.331C310.666 170.745 308.582 172.595 306.069 172.589L306.065 174.589ZM291.398 174.557L306.065 174.589L306.069 172.589L291.402 172.557L291.398 174.557ZM289.103 172.252C289.1 173.522 290.128 174.554 291.398 174.557L291.402 172.557C291.237 172.556 291.102 172.422 291.103 172.256L289.103 172.252ZM289.139 151.944L289.103 172.252L291.103 172.256L291.139 151.948L289.139 151.944ZM298.102 152.331C295.219 152.331 292.882 154.669 292.882 157.552H294.882C294.882 155.773 296.324 154.331 298.102 154.331V152.331ZM305.983 152.331H298.102V154.331H305.983V152.331ZM311.204 157.552C311.204 154.669 308.867 152.331 305.983 152.331V154.331C307.762 154.331 309.204 155.773 309.204 157.552H311.204ZM305.983 162.772C308.867 162.772 311.204 160.435 311.204 157.552H309.204C309.204 159.33 307.762 160.772 305.983 160.772V162.772ZM298.102 162.772H305.983V160.772H298.102V162.772ZM292.882 157.552C292.882 160.435 295.219 162.772 298.102 162.772V160.772C296.324 160.772 294.882 159.33 294.882 157.552H292.882ZM305.496 166.047H300.787V168.047H305.496V166.047ZM306.496 167.75V167.047H304.496V167.75H306.496ZM300.787 168.75H305.496V166.75H300.787V168.75ZM299.787 167.047V167.75H301.787V167.047H299.787ZM298.59 172.268H300.858V170.268H298.59V172.268ZM298.584 169.612L297.791 170.667L299.389 171.869L300.183 170.814L298.584 169.612ZM300.858 169.213H299.383V171.213H300.858V169.213ZM302.386 170.74C302.386 169.897 301.702 169.213 300.858 169.213V171.213C300.597 171.213 300.386 171.001 300.386 170.74H302.386ZM300.858 172.268C301.702 172.268 302.386 171.584 302.386 170.74H300.386C300.386 170.479 300.597 170.268 300.858 170.268V172.268ZM305.395 172.268H307.663V170.268H305.395V172.268ZM303.868 170.74C303.868 171.584 304.551 172.268 305.395 172.268V170.268C305.656 170.268 305.868 170.479 305.868 170.74H303.868ZM305.395 169.213C304.551 169.213 303.868 169.897 303.868 170.74H305.868C305.868 171.001 305.656 171.213 305.395 171.213V169.213ZM306.87 169.213H305.395V171.213H306.87V169.213ZM308.462 170.667L307.669 169.612L306.071 170.814L306.864 171.869L308.462 170.667ZM294.202 166.549L296.595 166.649L296.678 164.651L294.285 164.551L294.202 166.549ZM295.15 168.395L295.243 165.583L293.244 165.517L293.151 168.329L295.15 168.395ZM298.583 167.545L294.192 167.363L294.109 169.361L298.5 169.544L298.583 167.545ZM297.569 167.699L297.542 168.511L299.541 168.578L299.568 167.765L297.569 167.699ZM296.595 166.649C297.15 166.672 297.588 167.144 297.569 167.699L299.568 167.765C299.623 166.112 298.331 164.719 296.678 164.651L296.595 166.649Z" fill="#183D3D" mask="url(#path-14-inside-3_598_17878)"/>
<path d="M150.891 191.614H165.004C165.905 191.614 166.646 190.713 166.646 189.812C166.646 188.911 165.905 188.01 165.004 188.01H150.891V191.614ZM163.042 177.5H150.891V181.124H163.042C163.943 181.124 164.684 180.203 164.684 179.302C164.684 178.401 163.943 177.5 163.042 177.5ZM171.411 184.106C174.454 185.087 176.496 187.41 176.496 190.793C176.556 195.498 172.592 198.02 167.967 198.02H140.4V171.114H165.985C170.65 171.094 174.594 173.636 174.534 178.321C174.534 180.903 173.333 182.885 171.411 184.106ZM204.843 184.867V171.074H215.354V185.528C215.394 195.698 207.065 198.621 196.976 198.641C186.886 198.621 178.558 195.698 178.598 185.528V171.074H189.088V184.867C189.048 189.292 192.671 190.052 196.976 190.112C201.26 190.052 204.903 189.292 204.843 184.867ZM229.347 179.942C229.347 181.124 232.61 181.284 236.834 181.484C244.342 181.864 254.892 182.385 254.872 189.131C254.872 196.819 246.063 198.641 236.614 198.641C227.185 198.621 219.357 197.479 218.356 189.131H229.347C230.548 191.213 233.331 191.754 236.614 191.754C239.877 191.754 243.881 191.213 243.881 189.131C243.881 187.95 240.618 187.77 236.394 187.57C228.887 187.189 218.336 186.669 218.356 179.942C218.356 172.255 227.165 170.413 236.614 170.413C246.043 170.473 253.871 171.534 254.872 179.942H243.881C242.68 177.82 239.897 177.32 236.614 177.32C233.351 177.32 229.347 177.8 229.347 179.942Z" fill="#183D3D"/>
<path d="M140.508 128.85H153.812V162.975H140.508V128.85ZM190.629 148.832H204.264C203.426 160.359 193.32 163.812 181.031 163.812C168.234 163.787 157.672 160.08 157.723 147.156V144.668C157.672 131.77 168.234 128.062 181.031 128.012C193.32 128.037 203.426 131.49 204.264 142.992H190.629C189.385 139.641 185.602 138.854 181.031 138.854C175.598 138.93 170.977 139.895 171.053 145.506V146.344C170.977 151.904 175.598 152.92 181.031 152.996C185.602 152.996 189.41 152.184 190.629 148.832ZM208.25 128.875H241.131C248.164 128.799 254.131 134.715 254.029 141.773C254.029 144.338 253.344 146.674 251.973 148.756C250.627 150.812 248.824 152.387 246.59 153.428L254.029 163H239.861L233.438 154.672H221.555V163H208.25V128.875ZM237.779 138.854H221.555V144.668H237.779C238.592 144.668 239.277 144.389 239.836 143.83C240.42 143.246 240.699 142.561 240.699 141.773C240.699 140.148 239.404 138.854 237.779 138.854Z" fill="#183D3D"/>
<path d="M87.568 208V155.792L69.68 183.248L51.584 156V208H11.44V50.336L69.888 135.2L127.712 50.336V208H87.568Z" fill="#183D3D"/>
</svg>
