<svg width="200" height="61" viewBox="0 0 200 61" fill="none" xmlns="http://www.w3.org/2000/svg">
<g filter="url(#filter0_d_607_17936)">
<path d="M0 27.5C0 13.4167 11.4167 2 25.5 2H164.5C178.583 2 190 13.4167 190 27.5V27.5C190 41.5833 178.583 53 164.5 53H95H25.5C11.4167 53 0 41.5833 0 27.5V27.5Z" fill="url(#paint0_linear_607_17936)"/>
</g>
<path d="M51.5078 22.5C52.2057 22.5 52.8411 22.6719 53.4141 23.0156C53.987 23.3542 54.4427 23.8099 54.7812 24.3828C55.125 24.9557 55.2969 25.5911 55.2969 26.2891C55.2969 26.987 55.125 27.625 54.7812 28.2031C54.4427 28.776 53.987 29.2318 53.4141 29.5703C52.8411 29.9089 52.2057 30.0781 51.5078 30.0781H44.3594V33H41.1562V22.5H41.2969H44.3594H51.5078ZM50.6328 27.75C51.0339 27.75 51.3776 27.6068 51.6641 27.3203C51.9505 27.0339 52.0938 26.6901 52.0938 26.2891C52.0938 25.888 51.9505 25.5443 51.6641 25.2578C51.3776 24.9714 51.0339 24.8281 50.6328 24.8281H44.3594V27.75H50.6328ZM70.5391 26.2891C70.5391 27.1016 70.3099 27.8255 69.8516 28.4609C69.3984 29.0964 68.8073 29.5547 68.0781 29.8359L70.5391 33H67.1562L65.0469 30.0781H59.6016V33H56.3906V22.5H56.5391H59.6016H66.75C67.4479 22.5 68.0833 22.6719 68.6562 23.0156C69.2292 23.3542 69.6849 23.8099 70.0234 24.3828C70.3672 24.9557 70.5391 25.5911 70.5391 26.2891ZM59.6016 24.8281V27.75H65.875C66.276 27.75 66.6172 27.6068 66.8984 27.3203C67.1849 27.0339 67.3281 26.6901 67.3281 26.2891C67.3281 25.888 67.1849 25.5443 66.8984 25.2578C66.6172 24.9714 66.276 24.8281 65.875 24.8281H59.6016ZM84.7891 24.6016H75.0156V26.7422H84.7891V28.75H75.0156V30.8906H84.7891V33H71.8125V22.5H84.7891V24.6016ZM101.539 22.5H106.289V33H103.078V25.1172L97.3125 33H95.7188L89.9531 25.1172V33H86.75V22.5H91.5L96.5156 28.9375L101.539 22.5ZM108.641 22.5H111.844V33H108.641V22.5ZM120.742 33.25C118.247 33.25 116.388 32.8307 115.164 31.9922C113.94 31.1536 113.328 29.8776 113.328 28.1641V22.5H116.523V27.7266C116.523 28.3411 116.635 28.8411 116.859 29.2266C117.083 29.6068 117.367 29.9062 117.711 30.125C118.055 30.3385 118.419 30.4922 118.805 30.5859C119.195 30.6797 119.562 30.737 119.906 30.7578C120.255 30.7734 120.534 30.7812 120.742 30.7812C120.951 30.7812 121.227 30.7734 121.57 30.7578C121.919 30.737 122.286 30.6797 122.672 30.5859C123.062 30.4922 123.43 30.3385 123.773 30.125C124.117 29.9062 124.401 29.6068 124.625 29.2266C124.849 28.8411 124.961 28.3411 124.961 27.7266V22.5H128.156V28.1641C128.156 29.8776 127.544 31.1536 126.32 31.9922C125.096 32.8307 123.237 33.25 120.742 33.25ZM144.82 22.5H149.57V33H146.359V25.1172L140.594 33H139L133.234 25.1172V33H130.031V22.5H134.781L139.797 28.9375L144.82 22.5Z" fill="#183D3D"/>
<defs>
<filter id="filter0_d_607_17936" x="0" y="0" width="200" height="61" filterUnits="userSpaceOnUse" color-interpolation-filters="sRGB">
<feFlood flood-opacity="0" result="BackgroundImageFix"/>
<feColorMatrix in="SourceAlpha" type="matrix" values="0 0 0 0 0 0 0 0 0 0 0 0 0 0 0 0 0 0 127 0" result="hardAlpha"/>
<feOffset dx="5" dy="3"/>
<feGaussianBlur stdDeviation="2.5"/>
<feComposite in2="hardAlpha" operator="out"/>
<feColorMatrix type="matrix" values="0 0 0 0 0 0 0 0 0 0 0 0 0 0 0 0 0 0 0.25 0"/>
<feBlend mode="normal" in2="BackgroundImageFix" result="effect1_dropShadow_607_17936"/>
<feBlend mode="normal" in="SourceGraphic" in2="effect1_dropShadow_607_17936" result="shape"/>
</filter>
<linearGradient id="paint0_linear_607_17936" x1="0" y1="27.5" x2="190" y2="27.5" gradientUnits="userSpaceOnUse">
<stop offset="0.2" stop-color="#FDF8D1"/>
<stop offset="1" stop-color="#F9E591"/>
</linearGradient>
</defs>
</svg>
